<svg height="500" width="500" xmlns="http://www.w3.org/2000/svg"><g fill="none" stroke="#850000" stroke-linecap="round" stroke-linejoin="round" stroke-miterlimit="2.613" stroke-width="10"><path d="M25 386.911h391.464v30.121m0 0c0 7.129-5.825 12.936-12.917 12.936m0 0H35.337m0 0c-5.685 0-10.337-4.662-10.337-10.347m0 0v-32.71m121.629-205.145H59.633m0 0c-6.369 0-11.575 5.206-11.575 11.557"/><path d="M48.058 193.322v193.589h345.348v-71.237M282.104 181.766h-78.431m180.39 0h-69.708m79.051 97.426v-63.835M44.005 408.439h126.864m182.294 2.73a2.738 2.738 0 002.73-2.729 2.72 2.72 0 00-2.73-2.729 2.736 2.736 0 00-2.748 2.729c0 1.491 1.238 2.729 2.748 2.729m20.497 0c1.52 0 2.749-1.238 2.749-2.729a2.73 2.73 0 00-2.749-2.729 2.719 2.719 0 00-2.721 2.729c0 1.491 1.22 2.729 2.721 2.729m18.809 0c1.51 0 2.748-1.238 2.748-2.729a2.735 2.735 0 00-2.748-2.729 2.732 2.732 0 00-2.73 2.729c-.001 1.491 1.238 2.729 2.73 2.729"/><path d="M328.492 281.819c0 25.188-20.422 45.618-45.6 45.618s-45.59-20.431-45.59-45.618c0-25.168 20.412-45.6 45.59-45.6s45.6 20.432 45.6 45.6M314.6 101.729c0 17.514-14.202 31.688-31.707 31.688-17.514 0-31.688-14.174-31.688-31.688s14.174-31.697 31.688-31.697c17.504 0 31.707 14.183 31.707 31.697M475 281.819c0 17.514-14.193 31.707-31.707 31.707s-31.697-14.193-31.697-31.707c0-17.495 14.184-31.688 31.697-31.688S475 264.324 475 281.819m-29.54-137.736c0 11.735-9.512 21.266-21.266 21.266-11.764 0-21.304-9.53-21.304-21.266 0-11.764 9.54-21.285 21.304-21.285 11.754 0 21.266 9.521 21.266 21.285m-324.722-4.896c0 11.763-9.54 21.284-21.284 21.284-11.764 0-21.266-9.521-21.266-21.284 0-11.745 9.502-21.285 21.266-21.285 11.744-.001 21.284 9.539 21.284 21.285m199.424 114.866l90.008-93.582m-127.277 74.37V134.205m45.599 147.614h83.104M115.514 153.633l129.172 101.161"/></g></svg>