<svg data-name="Layer 1" id="Layer_1" viewBox="0 0 64 64" xmlns="http://www.w3.org/2000/svg"><defs><style>.cls-1{fill:none;stroke:#bc6f41;stroke-linecap:round;stroke-linejoin:round;stroke-width:2px}</style></defs><path class="cls-1" d="M54.57 40.19A24 24 0 019.38 40m.05-16.22a24 24 0 0145.23.22"/><path class="cls-1" d="M42.32 40.33C40.77 49.48 36.73 56 32 56s-8.82-6.61-10.35-15.86M21.6 24C23.09 14.6 27.18 8 32 8s8.85 6.66 10.37 16"/><rect class="cls-1" height="16" rx="2" ry="2" width="56" x="4" y="24"/><path class="cls-1" d="M27.07 29.64l2.46 5.55L32 30.8l2.47 4.39 2.46-5.55m-23.86 0l2.46 5.55L18 30.8l2.47 4.39 2.46-5.55m18.14 0l2.46 5.55L46 30.8l2.47 4.39 2.46-5.55"/></svg>